<svg width="24" height="24" viewBox="0 0 24 24" fill="none" xmlns="http://www.w3.org/2000/svg">
<g clip-path="url(#clip0_419_17034)">
<path d="M2.19763 17.1765H8.78587V19.0588H2.19763V17.1765ZM2.19763 10.5882H10.6682V12.4706H2.19763V10.5882ZM2.19763 4H21.0212V5.88235H2.19763V4ZM19.7732 12.4941L20.8612 12.1261L21.8023 13.7562L20.9402 14.5139C21.0487 15.0284 21.0487 15.5599 20.9402 16.0744L21.8023 16.832L20.8612 18.4621L19.7732 18.0941C19.3873 18.4424 18.928 18.7106 18.4226 18.8753L18.1976 20H16.3153L16.0894 18.8744C15.5899 18.7111 15.1301 18.445 14.7397 18.0932L13.6517 18.4621L12.7106 16.832L13.5727 16.0744C13.4642 15.5599 13.4642 15.0284 13.5727 14.5139L12.7106 13.7562L13.6517 12.1261L14.7397 12.4941C15.1256 12.1459 15.5849 11.8776 16.0903 11.7129L16.3153 10.5882H18.1976L18.4235 11.7139C18.928 11.8776 19.3873 12.1468 19.7732 12.4951V12.4941ZM17.2565 17.1765C17.7557 17.1765 18.2345 16.9782 18.5875 16.6251C18.9405 16.2721 19.1388 15.7933 19.1388 15.2941C19.1388 14.7949 18.9405 14.3161 18.5875 13.9631C18.2345 13.6101 17.7557 13.4118 17.2565 13.4118C16.7572 13.4118 16.2784 13.6101 15.9254 13.9631C15.5724 14.3161 15.3741 14.7949 15.3741 15.2941C15.3741 15.7933 15.5724 16.2721 15.9254 16.6251C16.2784 16.9782 16.7572 17.1765 17.2565 17.1765V17.1765Z" fill="black"/>
</g>
<defs>
<clipPath id="clip0_419_17034">
<rect width="24" height="24" fill="white"/>
</clipPath>
</defs>
</svg>
